<?xml version="1.0" encoding="UTF-8" standalone="no"?>
<!-- Created with Inkscape (http://www.inkscape.org/) -->

<svg
   xmlns:dc="http://purl.org/dc/elements/1.1/"
   xmlns:cc="http://creativecommons.org/ns#"
   xmlns:rdf="http://www.w3.org/1999/02/22-rdf-syntax-ns#"
   xmlns:svg="http://www.w3.org/2000/svg"
   xmlns="http://www.w3.org/2000/svg"
   xmlns:sodipodi="http://sodipodi.sourceforge.net/DTD/sodipodi-0.dtd"
   xmlns:inkscape="http://www.inkscape.org/namespaces/inkscape"
   width="108"
   height="108"
   id="svg2"
   version="1.1"
   inkscape:version="0.92.2 5c3e80d, 2017-08-06"
   sodipodi:docname="ic_launcher_foreground.svg"
   inkscape:export-filename="/Users/slaterama/Development/AndroidStudio/CodepunkShell/app/src/main/res/mipmap-xxxhdpi/ic_account_codepunk.png"
   inkscape:export-xdpi="60"
   inkscape:export-ydpi="60"
   style="display:inline">
  <sodipodi:namedview
     id="base"
     pagecolor="#ffffff"
     bordercolor="#666666"
     borderopacity="1.0"
     inkscape:pageopacity="0"
     inkscape:pageshadow="2"
     inkscape:zoom="6.53"
     inkscape:cx="56.06336"
     inkscape:cy="54.178426"
     inkscape:document-units="px"
     inkscape:current-layer="layer8"
     showgrid="true"
     units="px"
     inkscape:showpageshadow="false"
     inkscape:window-width="1442"
     inkscape:window-height="942"
     inkscape:window-x="0"
     inkscape:window-y="1"
     inkscape:window-maximized="0"
     inkscape:snap-to-guides="false"
     inkscape:snap-grids="true"
     inkscape:snap-intersection-paths="true"
     inkscape:pagecheckerboard="false"
     inkscape:snap-bbox="true"
     inkscape:bbox-nodes="true"
     inkscape:snap-nodes="false"
     inkscape:bbox-paths="false">
    <inkscape:grid
       originy="0"
       originx="0"
       dotted="false"
       spacingy="1"
       spacingx="1"
       units="px"
       snapvisiblegridlinesonly="false"
       enabled="true"
       visible="true"
       empspacing="4"
       id="grid2816"
       type="xygrid" />
  </sodipodi:namedview>
  <defs
     id="defs4" />
  <metadata
     id="metadata7">
    <rdf:RDF>
      <cc:Work
         rdf:about="">
        <dc:format>image/svg+xml</dc:format>
        <dc:type
           rdf:resource="http://purl.org/dc/dcmitype/StillImage" />
        <dc:title></dc:title>
      </cc:Work>
    </rdf:RDF>
  </metadata>
  <g
     style="display:inline"
     inkscape:label="ic_launcher_foreground"
     id="layer8"
     inkscape:groupmode="layer">
    <path
       sodipodi:nodetypes="cccccccc"
       inkscape:connector-curvature="0"
       id="path882"
       d="M 29,54.387426 83,108 h 25 c 0,0 -0.11238,-36.94014 0,-37 L 70.387914,33.134163 61.439173,51.031642 46.89747,36.489939 Z"
       style="opacity:1;fill:#c0c0c0;fill-opacity:1;stroke:none;stroke-width:0.25000003;stroke-miterlimit:4;stroke-dasharray:none;stroke-dashoffset:0;stroke-opacity:1" />
    <path
       inkscape:connector-curvature="0"
       style="opacity:1;fill:#ff8156;fill-opacity:1;stroke:none;stroke-width:0.24999994;stroke-miterlimit:4;stroke-dasharray:none;stroke-dashoffset:0;stroke-opacity:1"
       d="m 68.331204,32.333374 c -1.22601,-0.05681 -2.425193,0.61074 -2.988424,1.788099 l -0.755568,1.578822 c -0.358879,-0.138541 -0.739361,-0.21777 -1.12643,-0.21851 -0.274174,-6.23e-4 -0.549845,0.03482 -0.821742,0.107719 -1.087596,0.291397 -1.936819,1.140643 -2.22824,2.228192 -0.29142,1.087548 0.01938,2.247629 0.815589,3.043765 l 0.603224,0.603215 -13.823389,28.898843 c -0.485798,1.015513 -0.394436,2.213537 0.241603,3.14225 0.636031,0.92872 1.71886,1.447104 2.840689,1.360304 1.121837,-0.08675 2.113304,-0.766425 2.599102,-1.781946 l 12.866226,-26.895306 5.838355,5.838237 -11.16581,11.165614 c -0.796167,0.796135 -1.107009,1.956208 -0.815589,3.043764 0.291421,1.087549 1.140652,1.93678 2.22824,2.228185 1.087603,0.291412 2.247645,-0.01946 3.04382,-0.815557 L 79.076917,54.255266 c 1.230785,-1.230745 1.230785,-3.22567 0,-4.456392 l -9.639287,-9.639106 1.586544,-3.316135 c 0.750974,-1.56984 0.08854,-3.452626 -1.480361,-4.204026 -0.392222,-0.187862 -0.803936,-0.287285 -1.212609,-0.306233 z"
       id="path1606" />
    <path
       inkscape:connector-curvature="0"
       style="opacity:1;fill:#ff8156;fill-opacity:1;stroke:none;stroke-width:0.24999994;stroke-miterlimit:4;stroke-dasharray:none;stroke-dashoffset:0;stroke-opacity:1"
       d="m 44.539226,35.481785 c -0.822537,0.0016 -1.624944,0.326189 -2.222086,0.923291 L 28.923083,49.798874 c -1.230777,1.230722 -1.230777,3.225647 0,4.456392 l 13.394065,13.393798 c 0.796168,0.796128 1.956209,1.106969 3.043812,0.815557 1.087596,-0.291405 1.936819,-1.140644 2.22824,-2.228193 0.291428,-1.087548 -0.01938,-2.247621 -0.815581,-3.043756 L 35.607809,52.027058 46.773619,40.861461 c 0.796167,-0.796136 1.107009,-1.956217 0.815581,-3.043765 -0.291421,-1.087549 -1.140636,-1.936795 -2.22824,-2.228192 -0.271897,-0.07288 -0.547567,-0.108334 -0.821734,-0.107719 z"
       id="path884" />
  </g>
</svg>
