<?xml version="1.0" encoding="UTF-8" standalone="no"?>
<!-- Created with Inkscape (http://www.inkscape.org/) -->

<svg
   xmlns:dc="http://purl.org/dc/elements/1.1/"
   xmlns:cc="http://creativecommons.org/ns#"
   xmlns:rdf="http://www.w3.org/1999/02/22-rdf-syntax-ns#"
   xmlns:svg="http://www.w3.org/2000/svg"
   xmlns="http://www.w3.org/2000/svg"
   xmlns:sodipodi="http://sodipodi.sourceforge.net/DTD/sodipodi-0.dtd"
   xmlns:inkscape="http://www.inkscape.org/namespaces/inkscape"
   width="180"
   height="180"
   id="svg2"
   version="1.1"
   inkscape:version="0.92.2 5c3e80d, 2017-08-06"
   sodipodi:docname="ic_launcher_foreground (for online tool) 2.svg"
   inkscape:export-filename="/Users/slaterama/Development/AndroidStudio/CodepunkShell/app/src/main/res/mipmap-xxxhdpi/ic_account_codepunk.png"
   inkscape:export-xdpi="60"
   inkscape:export-ydpi="60"
   style="display:inline">
  <sodipodi:namedview
     id="base"
     pagecolor="#ffffff"
     bordercolor="#666666"
     borderopacity="1.0"
     inkscape:pageopacity="0"
     inkscape:pageshadow="2"
     inkscape:zoom="2"
     inkscape:cx="36.627187"
     inkscape:cy="90.975718"
     inkscape:document-units="px"
     inkscape:current-layer="layer8"
     showgrid="true"
     units="px"
     inkscape:showpageshadow="false"
     inkscape:window-width="1569"
     inkscape:window-height="831"
     inkscape:window-x="0"
     inkscape:window-y="1"
     inkscape:window-maximized="0"
     inkscape:snap-to-guides="false"
     inkscape:snap-grids="true"
     inkscape:snap-intersection-paths="true"
     inkscape:pagecheckerboard="false"
     inkscape:snap-bbox="true"
     inkscape:bbox-nodes="true"
     inkscape:snap-nodes="true">
    <inkscape:grid
       originy="0"
       originx="0"
       dotted="false"
       spacingy="1"
       spacingx="1"
       units="px"
       snapvisiblegridlinesonly="false"
       enabled="true"
       visible="true"
       empspacing="4"
       id="grid2816"
       type="xygrid" />
  </sodipodi:namedview>
  <defs
     id="defs4" />
  <metadata
     id="metadata7">
    <rdf:RDF>
      <cc:Work
         rdf:about="">
        <dc:format>image/svg+xml</dc:format>
        <dc:type
           rdf:resource="http://purl.org/dc/dcmitype/StillImage" />
        <dc:title></dc:title>
      </cc:Work>
    </rdf:RDF>
  </metadata>
  <g
     style="display:inline"
     inkscape:label="ic_launcher_foreground"
     id="layer8"
     inkscape:groupmode="layer">
    <path
       style="display:inline;opacity:1;fill:#000000;fill-opacity:0.15058821;stroke:none;stroke-width:0.47244096;stroke-miterlimit:4;stroke-dasharray:none;stroke-dashoffset:0;stroke-opacity:1"
       d="m 121.92898,44.000392 c -0.17756,0.0016 -0.35571,0.0092 -0.53433,0.02273 -2.85791,0.216816 -5.38115,1.945646 -6.6151,4.532541 l -1.65623,3.524848 c -0.36528,-0.05197 -0.73467,-0.07978 -1.10587,-0.08061 -0.69597,-0.0016 -1.39806,0.08845 -2.08825,0.273883 -2.76073,0.741725 -4.91676,2.903334 -5.6565,5.67149 -0.73974,2.768155 0.0492,5.721935 2.07016,7.748365 l 0.262,0.263033 -6.822325,14.520562 C 90.661308,71.414843 73.766036,54.466409 73.766036,54.466409 c -0.993817,-1.036968 -2.261835,-1.807482 -3.695382,-2.192631 -0.690184,-0.185433 -1.39228,-0.275439 -2.088243,-0.273883 -2.08789,0.0047 -4.1237,0.829386 -5.63945,2.349209 L 32.343244,84.429968 c -3.124194,3.13259 -3.124194,8.211422 0,11.344012 23.439416,22.95749 84.651886,84.226 84.651886,84.226 h 63.00486 V 98.78822 L 127.77204,46.46484 c -1.51704,-1.581968 -3.6282,-2.484406 -5.84306,-2.464448 z"
       id="path931"
       inkscape:connector-curvature="0"
       sodipodi:nodetypes="ccccccscccccccccccccc" />
    <path
       inkscape:connector-curvature="0"
       id="path914"
       d="m 121.92898,44.000392 c -0.17756,0.0016 -0.35571,0.0092 -0.53433,0.02273 -2.85791,0.216816 -5.38115,1.945646 -6.6151,4.532541 l -1.65623,3.524848 c -0.36528,-0.05197 -0.73467,-0.07978 -1.10587,-0.08061 -0.69597,-0.0016 -1.39806,0.08845 -2.08825,0.273883 -2.76073,0.741725 -4.91676,2.903334 -5.6565,5.67149 -0.73974,2.768155 0.0492,5.721935 2.07016,7.748365 l 0.262,0.263033 -30.687534,65.323668 c -1.344663,2.56046 -1.202955,5.64718 0.371036,8.07341 1.57399,2.42623 4.335073,3.81401 7.221264,3.62976 2.886192,-0.18427 5.448205,-1.9119 6.700882,-4.51859 l 28.409122,-60.461437 11.96412,11.996167 -24.24089,24.30602 c -2.021,2.02643 -2.8099,4.98021 -2.07016,7.74836 0.73974,2.76816 2.89577,4.9308 5.6565,5.67252 2.76074,0.74173 5.7067,-0.0499 7.7277,-2.07636 l 29.99971,-29.8762 c 3.1242,-3.13259 3.1242,-8.211426 0,-11.344016 L 125.86673,62.58117 129.19159,55.5046 c 1.25563,-2.576447 1.03701,-5.627865 -0.57309,-7.998995 -1.50946,-2.222934 -4.02604,-3.529214 -6.68952,-3.505213 z m -53.946569,7.999513 c -2.08789,0.0047 -4.1237,0.829387 -5.63945,2.349209 L 32.343244,84.429968 c -3.124194,3.13259 -3.124194,8.211422 0,11.344012 l 29.999717,29.87622 c 2.020998,2.02643 4.966956,2.81808 7.727693,2.07635 2.760736,-0.74172 4.916765,-2.90436 5.656503,-5.67252 0.739738,-2.76815 -0.04916,-5.72193 -2.070158,-7.74836 L 49.416102,89.99965 73.656999,65.693644 c 2.020998,-2.026431 2.809893,-4.98021 2.070158,-7.748366 -0.739738,-2.768155 -2.895767,-4.929764 -5.656503,-5.671489 -0.690184,-0.185434 -1.39228,-0.27544 -2.088243,-0.273884 z"
       style="opacity:1;fill:#ffffff;fill-opacity:1;stroke:none;stroke-width:0.47244096;stroke-miterlimit:4;stroke-dasharray:none;stroke-dashoffset:0;stroke-opacity:1" />
  </g>
</svg>
