<?xml version="1.0" encoding="UTF-8"?>
<svg width="108" height="108" version="1.1" xmlns="http://www.w3.org/2000/svg">
 <g>
  <path d="m29 54.4 54 53.6h25s-.112-36.9 0-37l-37.6-37.9-8.95 17.9-14.5-14.5z" fill="#c0c0c0"/>
  <path d="m68.3 32.3c-1.23-.0568-2.43.611-2.99 1.79l-.756 1.58c-.359-.139-.739-.218-1.13-.219-.274-.000623-.55.0348-.822.108-1.09.291-1.94 1.14-2.23 2.23-.291 1.09.0194 2.25.816 3.04l.603.603-13.8 28.9c-.486 1.02-.394 2.21.242 3.14.636.929 1.72 1.45 2.84 1.36 1.12-.0868 2.11-.766 2.6-1.78l12.9-26.9 5.84 5.84-11.2 11.2c-.796.796-1.11 1.96-.816 3.04.291 1.09 1.14 1.94 2.23 2.23 1.09.291 2.25-.0195 3.04-.816l13.4-13.4c1.23-1.23 1.23-3.23 0-4.46l-9.64-9.64 1.59-3.32c.751-1.57.0885-3.45-1.48-4.2-.392-.188-.804-.287-1.21-.306z" fill="#ff8156"/>
  <path d="m44.5 35.5c-.823.0016-1.62.326-2.22.923l-13.4 13.4c-1.23 1.23-1.23 3.23 0 4.46l13.4 13.4c.796.796 1.96 1.11 3.04.816 1.09-.291 1.94-1.14 2.23-2.23.291-1.09-.0194-2.25-.816-3.04l-11.2-11.2 11.2-11.2c.796-.796 1.11-1.96.816-3.04-.291-1.09-1.14-1.94-2.23-2.23-.272-.0729-.548-.108-.822-.108z" fill="#ff8156"/>
 </g>
</svg>
