<?xml version="1.0" encoding="UTF-8" standalone="no"?>
<!-- Created with Inkscape (http://www.inkscape.org/) -->

<svg
   xmlns:dc="http://purl.org/dc/elements/1.1/"
   xmlns:cc="http://creativecommons.org/ns#"
   xmlns:rdf="http://www.w3.org/1999/02/22-rdf-syntax-ns#"
   xmlns:svg="http://www.w3.org/2000/svg"
   xmlns="http://www.w3.org/2000/svg"
   xmlns:sodipodi="http://sodipodi.sourceforge.net/DTD/sodipodi-0.dtd"
   xmlns:inkscape="http://www.inkscape.org/namespaces/inkscape"
   width="180"
   height="180"
   id="svg2"
   version="1.1"
   inkscape:version="0.92.2 5c3e80d, 2017-08-06"
   sodipodi:docname="ic_launcher_foreground (for online tool).svg"
   inkscape:export-filename="/Users/slaterama/Development/AndroidStudio/CodepunkShell/app/src/main/res/mipmap-xxxhdpi/ic_account_codepunk.png"
   inkscape:export-xdpi="60"
   inkscape:export-ydpi="60"
   style="display:inline">
  <sodipodi:namedview
     id="base"
     pagecolor="#ffffff"
     bordercolor="#666666"
     borderopacity="1.0"
     inkscape:pageopacity="0"
     inkscape:pageshadow="2"
     inkscape:zoom="2"
     inkscape:cx="99.127187"
     inkscape:cy="90.975718"
     inkscape:document-units="px"
     inkscape:current-layer="layer8"
     showgrid="true"
     units="px"
     inkscape:showpageshadow="false"
     inkscape:window-width="1412"
     inkscape:window-height="839"
     inkscape:window-x="0"
     inkscape:window-y="1"
     inkscape:window-maximized="0"
     inkscape:snap-to-guides="false"
     inkscape:snap-grids="true"
     inkscape:snap-intersection-paths="true"
     inkscape:pagecheckerboard="false"
     inkscape:snap-bbox="true"
     inkscape:bbox-nodes="true"
     inkscape:snap-nodes="true">
    <inkscape:grid
       originy="0"
       originx="0"
       dotted="false"
       spacingy="1"
       spacingx="1"
       units="px"
       snapvisiblegridlinesonly="false"
       enabled="true"
       visible="true"
       empspacing="4"
       id="grid2816"
       type="xygrid" />
  </sodipodi:namedview>
  <defs
     id="defs4" />
  <metadata
     id="metadata7">
    <rdf:RDF>
      <cc:Work
         rdf:about="">
        <dc:format>image/svg+xml</dc:format>
        <dc:type
           rdf:resource="http://purl.org/dc/dcmitype/StillImage" />
        <dc:title></dc:title>
      </cc:Work>
    </rdf:RDF>
  </metadata>
  <g
     transform="translate(0,-11.999981)"
     style="display:inline"
     inkscape:label="ic_launcher_foreground"
     id="layer8"
     inkscape:groupmode="layer">
    <rect
       style="display:inline;opacity:1;fill:#fffffd;fill-opacity:0;stroke:none;stroke-width:0.49889764;stroke-miterlimit:4;stroke-dasharray:none;stroke-dashoffset:0;stroke-opacity:1"
       id="rect6179"
       width="835.19995"
       height="820.79999"
       x="-1.8525287e-16"
       y="-488" />
    <g
       id="g2431"
       transform="matrix(0.26458332,0,0,0.26458335,0,141.19999)"
       style="stroke-width:3.77952766">
      <rect
         y="-488.31497"
         x="0"
         height="680.31494"
         width="680.315"
         id="rect2425"
         style="opacity:1;fill:#ff2eff;fill-opacity:0;stroke:none;stroke-width:0.94488192;stroke-miterlimit:4;stroke-dasharray:none;stroke-dashoffset:0;stroke-opacity:1" />
      <path
         transform="translate(0,-488.31496)"
         sodipodi:nodetypes="ccccccscccccccccccccc"
         inkscape:connector-curvature="0"
         id="path931"
         d="m 460.83398,166.30078 c -0.67111,0.006 -1.34443,0.0347 -2.01953,0.0859 -10.80155,0.81946 -20.33819,7.35362 -25.00195,17.13086 l -6.25977,13.32226 c -1.3806,-0.19644 -2.7767,-0.30154 -4.17968,-0.30468 -2.63041,-0.006 -5.28401,0.3343 -7.89258,1.03515 -10.43428,2.80337 -18.58305,10.97323 -21.37891,21.43555 -2.79585,10.46232 0.1858,21.62621 7.82422,29.28516 l 0.99024,0.99414 -25.78516,54.88086 c -34.47393,-34.25153 -98.33008,-98.3086 -98.33008,-98.3086 -3.75616,-3.91925 -8.54867,-6.83143 -13.9668,-8.28711 -2.60857,-0.70085 -5.26216,-1.04103 -7.89257,-1.03515 -7.89124,0.0177 -15.58564,3.13469 -21.31446,8.8789 L 122.24219,319.10547 c -11.80798,11.83971 -11.80798,31.03529 0,42.875 88.58992,86.76844 319.94415,318.33447 319.94415,318.33447 h 238.12863 l -10e-6,-306.94206 -197.39699,-197.75765 c -5.73371,-5.97909 -13.7129,-9.38988 -22.08399,-9.31445 z"
         style="display:inline;opacity:1;fill:#000000;fill-opacity:0.15058821;stroke:none;stroke-width:1.78560364;stroke-miterlimit:4;stroke-dasharray:none;stroke-dashoffset:0;stroke-opacity:1" />
      <path
         style="opacity:1;fill:#ffffff;fill-opacity:1;stroke:none;stroke-width:1.78560364;stroke-miterlimit:4;stroke-dasharray:none;stroke-dashoffset:0;stroke-opacity:1"
         d="m 460.83398,166.30078 c -0.67111,0.006 -1.34443,0.0347 -2.01953,0.0859 -10.80155,0.81946 -20.33819,7.35362 -25.00195,17.13086 l -6.25977,13.32226 c -1.3806,-0.19644 -2.7767,-0.30154 -4.17968,-0.30468 -2.63041,-0.006 -5.28401,0.3343 -7.89258,1.03515 -10.43428,2.80337 -18.58305,10.97323 -21.37891,21.43555 -2.79585,10.46232 0.1858,21.62621 7.82422,29.28516 l 0.99024,0.99414 -115.98438,246.89257 c -5.08219,9.67732 -4.5466,21.34366 1.40234,30.51368 5.94894,9.17001 16.38453,14.41516 27.29297,13.71875 10.90844,-0.69642 20.59164,-7.22606 25.32617,-17.07813 l 107.37305,-228.51562 45.21875,45.33984 -91.61914,91.86523 c -7.63842,7.65896 -10.62008,18.82284 -7.82422,29.28516 2.79586,10.46232 10.94463,18.63608 21.37891,21.43945 10.43428,2.80337 21.56861,-0.1887 29.20703,-7.84765 L 558.07227,361.98047 c 11.80798,-11.83971 11.80798,-31.03529 0,-42.875 l -82.35547,-82.57813 12.5664,-26.74609 c 4.74567,-9.73775 3.91939,-21.27067 -2.16601,-30.23242 -5.70506,-8.40164 -15.21653,-13.33876 -25.28321,-13.24805 z m -203.89257,30.23438 c -7.89124,0.0177 -15.58564,3.13469 -21.31446,8.8789 L 122.24219,319.10547 c -11.80798,11.83971 -11.80798,31.03529 0,42.875 l 113.38476,112.91797 c 7.63842,7.65895 18.77275,10.65102 29.20703,7.84765 10.43428,-2.80337 18.58305,-10.97713 21.37891,-21.43945 2.79586,-10.46232 -0.1858,-21.6262 -7.82422,-29.28516 l -91.61914,-91.86523 91.61914,-91.86523 c 7.63842,-7.65895 10.62007,-18.82284 7.82422,-29.28516 -2.79586,-10.46232 -10.94463,-18.63218 -21.37891,-21.43555 -2.60857,-0.70085 -5.26216,-1.04103 -7.89257,-1.03515 z"
         transform="translate(0,-488.31496)"
         id="path914"
         inkscape:connector-curvature="0" />
    </g>
  </g>
</svg>
